<svg width="27" height="24" viewBox="0 0 27 24" fill="none" xmlns="http://www.w3.org/2000/svg">
<path d="M11.6025 1.65869L12.86 0.444629C13.3924 -0.0694336 14.2533 -0.0694336 14.7801 0.444629L25.791 11.0704C26.3234 11.5845 26.3234 12.4157 25.791 12.9243L14.7801 23.5556C14.2477 24.0696 13.3867 24.0696 12.86 23.5556L11.6025 22.3415C11.0645 21.822 11.0758 20.9743 11.6252 20.4657L18.4504 14.1876H2.17188C1.41855 14.1876 0.8125 13.6024 0.8125 12.8751V11.1251C0.8125 10.3978 1.41855 9.8126 2.17188 9.8126H18.4504L11.6252 3.53447C11.0701 3.02588 11.0588 2.17822 11.6025 1.65869Z" fill="#D9D9D9" fill-opacity="0.75"/>
</svg>
