<svg width="16" height="11" viewBox="0 0 16 11" fill="none" xmlns="http://www.w3.org/2000/svg">
<path d="M15.1001 8.46242L15.1 8.46242L15.0991 8.46336L13.9956 9.56688C13.6337 9.92875 13.0505 9.92739 12.6948 9.56782L12.6948 9.56782L12.6939 9.56688L7.98684 4.85984L7.81006 4.68307L7.63328 4.85984L2.92625 9.56688C2.56437 9.92875 1.98121 9.92739 1.62548 9.56782L1.62453 9.56688L0.521016 8.46336C0.159137 8.10148 0.160504 7.51832 0.520071 7.16259L0.521016 7.16164L7.16164 0.521015L7.16165 0.521026L7.16353 0.519104C7.51366 0.161362 8.09606 0.158598 8.45848 0.521015L15.0991 7.16164C15.461 7.52352 15.4596 8.10668 15.1001 8.46242Z" stroke="#333333" stroke-width="0.5"/>
</svg>
