<svg width="10" height="10" viewBox="0 0 10 10" fill="none" xmlns="http://www.w3.org/2000/svg">
<path d="M7.90323 1.07341C9.17339 1.96627 10 3.42658 10 5.07936C10 7.79364 7.76613 9.99404 5.01008 9.99999C2.25807 10.0059 0.00403594 7.79761 3.67976e-06 5.0873C-0.00201245 3.43452 0.8246 1.97024 2.09274 1.0754C2.32863 0.910713 2.65726 0.980158 2.79839 1.22817L3.11694 1.78571C3.23589 1.99405 3.17944 2.25793 2.98387 2.40079C2.14718 3.0119 1.61291 3.98015 1.61291 5.07737C1.61089 6.90872 3.11492 8.41269 5 8.41269C6.84678 8.41269 8.39919 6.94047 8.3871 5.05753C8.38105 4.02976 7.88911 3.03769 7.01411 2.39881C6.81855 2.25595 6.76411 1.99206 6.88307 1.78571L7.20161 1.22817C7.34274 0.982142 7.66936 0.908729 7.90323 1.07341ZM5.80645 5.23809V0.47619C5.80645 0.212301 5.59073 0 5.32258 0H4.67742C4.40928 0 4.19355 0.212301 4.19355 0.47619V5.23809C4.19355 5.50198 4.40928 5.71428 4.67742 5.71428H5.32258C5.59073 5.71428 5.80645 5.50198 5.80645 5.23809Z" fill="black"/>
</svg>
