<svg width="9" height="8" viewBox="0 0 9 8" fill="none" xmlns="http://www.w3.org/2000/svg">
<path d="M6.29063 1.29869L7.7 2.70834C7.75937 2.76773 7.75937 2.86462 7.7 2.92401L4.2875 6.33718L2.8375 6.49814C2.64375 6.52002 2.47969 6.35593 2.50156 6.16214L2.6625 4.71186L6.075 1.29869C6.13437 1.2393 6.23125 1.2393 6.29063 1.29869ZM8.82187 0.940809L8.05937 0.17816C7.82187 -0.0593866 7.43594 -0.0593866 7.19688 0.17816L6.64375 0.731393C6.58438 0.79078 6.58438 0.887673 6.64375 0.94706L8.05313 2.35671C8.1125 2.4161 8.20938 2.4161 8.26875 2.35671L8.82187 1.80348C9.05937 1.56437 9.05937 1.17836 8.82187 0.940809V0.940809ZM6 5.40887V6.9998H1V1.99883H4.59062C4.64062 1.99883 4.6875 1.97851 4.72344 1.94413L5.34844 1.31901C5.46719 1.20023 5.38281 0.998633 5.21562 0.998633H0.75C0.335938 0.998633 0 1.33464 0 1.74878V7.24985C0 7.664 0.335938 8 0.75 8H6.25C6.66406 8 7 7.664 7 7.24985V4.78375C7 4.61653 6.79844 4.5337 6.67969 4.65091L6.05469 5.27603C6.02031 5.31198 6 5.35886 6 5.40887Z" fill="#D9D9D9"/>
</svg>
