<svg width="7" height="8" viewBox="0 0 7 8" fill="none" xmlns="http://www.w3.org/2000/svg">
<path d="M0.5 7.25C0.5 7.44891 0.579018 7.63968 0.71967 7.78033C0.860322 7.92098 1.05109 8 1.25 8H5.75C5.94891 8 6.13968 7.92098 6.28033 7.78033C6.42098 7.63968 6.5 7.44891 6.5 7.25V2H0.5V7.25ZM4.75 3.25C4.75 3.1837 4.77634 3.12011 4.82322 3.07323C4.87011 3.02634 4.9337 3 5 3C5.0663 3 5.12989 3.02634 5.17678 3.07323C5.22366 3.12011 5.25 3.1837 5.25 3.25V6.75C5.25 6.81631 5.22366 6.87989 5.17678 6.92678C5.12989 6.97366 5.0663 7 5 7C4.9337 7 4.87011 6.97366 4.82322 6.92678C4.77634 6.87989 4.75 6.81631 4.75 6.75V3.25ZM3.25 3.25C3.25 3.1837 3.27634 3.12011 3.32322 3.07323C3.37011 3.02634 3.4337 3 3.5 3C3.5663 3 3.62989 3.02634 3.67678 3.07323C3.72366 3.12011 3.75 3.1837 3.75 3.25V6.75C3.75 6.81631 3.72366 6.87989 3.67678 6.92678C3.62989 6.97366 3.5663 7 3.5 7C3.4337 7 3.37011 6.97366 3.32322 6.92678C3.27634 6.87989 3.25 6.81631 3.25 6.75V3.25ZM1.75 3.25C1.75 3.1837 1.77634 3.12011 1.82322 3.07323C1.87011 3.02634 1.9337 3 2 3C2.0663 3 2.12989 3.02634 2.17678 3.07323C2.22366 3.12011 2.25 3.1837 2.25 3.25V6.75C2.25 6.81631 2.22366 6.87989 2.17678 6.92678C2.12989 6.97366 2.0663 7 2 7C1.9337 7 1.87011 6.97366 1.82322 6.92678C1.77634 6.87989 1.75 6.81631 1.75 6.75V3.25ZM6.75 0.500003H4.875L4.72812 0.207815C4.69701 0.145349 4.64909 0.0928031 4.58974 0.05609C4.53039 0.0193768 4.46197 -4.73119e-05 4.39219 2.73949e-06H2.60625C2.53662 -0.000264925 2.46833 0.0190868 2.40919 0.0558408C2.35005 0.0925948 2.30246 0.145264 2.27187 0.207815L2.125 0.500003H0.25C0.183696 0.500003 0.120107 0.526342 0.0732233 0.573226C0.0263392 0.62011 0 0.683698 0 0.750003L0 1.25C0 1.31631 0.0263392 1.37989 0.0732233 1.42678C0.120107 1.47366 0.183696 1.5 0.25 1.5H6.75C6.8163 1.5 6.87989 1.47366 6.92678 1.42678C6.97366 1.37989 7 1.31631 7 1.25V0.750003C7 0.683698 6.97366 0.62011 6.92678 0.573226C6.87989 0.526342 6.8163 0.500003 6.75 0.500003Z" fill="#D9D9D9"/>
</svg>
